<svg width="159" height="185" viewBox="0 0 159 185" fill="none" xmlns="http://www.w3.org/2000/svg">
<path d="M133.172 0.363281C119.351 0.363281 108.125 11.5896 108.125 25.4102C108.125 36.0774 114.812 45.2017 124.227 48.8021V54.9744L79.5 112.493L34.7734 54.9744V48.8021C44.1884 45.2017 50.875 36.0774 50.875 25.4102C50.875 11.5896 39.6486 0.363281 25.8281 0.363281C12.0076 0.363281 0.78125 11.5896 0.78125 25.4102C0.78125 36.726 8.34004 46.3198 18.6719 49.406V57.0989C18.6719 59.2682 19.4099 61.415 20.7517 63.137L71.4492 128.348V135.862C61.5646 139.217 54.4531 148.587 54.4531 159.59C54.4531 173.41 65.6795 184.637 79.5 184.637C93.3205 184.637 104.547 173.41 104.547 159.59C104.547 148.587 97.4354 139.239 87.5508 135.862V128.348L138.248 63.137C139.59 61.415 140.328 59.2682 140.328 57.0989V49.406C150.66 46.3198 158.219 36.726 158.219 25.4102C158.219 11.5896 146.992 0.363281 133.172 0.363281V0.363281ZM15.0938 25.4102C15.1511 22.6012 16.3072 19.9266 18.3141 17.9603C20.3209 15.994 23.0185 14.8927 25.8281 14.8927C28.6377 14.8927 31.3353 15.994 33.3422 17.9603C35.349 19.9266 36.5052 22.6012 36.5625 25.4102C36.5052 28.2191 35.349 30.8938 33.3422 32.86C31.3353 34.8263 28.6377 35.9276 25.8281 35.9276C23.0185 35.9276 20.3209 34.8263 18.3141 32.86C16.3072 30.8938 15.1511 28.2191 15.0938 25.4102V25.4102ZM90.2344 159.59C90.177 162.399 89.0209 165.073 87.0141 167.04C85.0072 169.006 82.3096 170.107 79.5 170.107C76.6904 170.107 73.9928 169.006 71.9859 167.04C69.9791 165.073 68.823 162.399 68.7656 159.59C68.823 156.781 69.9791 154.106 71.9859 152.14C73.9928 150.174 76.6904 149.072 79.5 149.072C82.3096 149.072 85.0072 150.174 87.0141 152.14C89.0209 154.106 90.177 156.781 90.2344 159.59V159.59ZM133.172 36.1445C130.363 36.0872 127.688 34.9311 125.722 32.9242C123.756 30.9174 122.654 28.2197 122.654 25.4102C122.654 22.6006 123.756 19.9029 125.722 17.8961C127.688 15.8893 130.363 14.7331 133.172 14.6758C135.981 14.7331 138.655 15.8893 140.622 17.8961C142.588 19.9029 143.689 22.6006 143.689 25.4102C143.689 28.2197 142.588 30.9174 140.622 32.9242C138.655 34.9311 135.981 36.0872 133.172 36.1445V36.1445Z" fill="#1A1E22"/>
</svg>
