<svg width="225" height="215" viewBox="0 0 225 215" fill="none" xmlns="http://www.w3.org/2000/svg">
<path d="M217.322 75.4506L150.128 65.6851L120.09 4.78945C119.27 3.12217 117.92 1.77246 116.253 0.952051C112.071 -1.11221 106.99 0.608008 104.899 4.78945L74.8618 65.6851L7.66754 75.4506C5.815 75.7152 4.12125 76.5886 2.82447 77.9118C1.25674 79.5232 0.392845 81.691 0.42262 83.939C0.452394 86.1869 1.3734 88.3311 2.98326 89.9004L51.5992 137.299L40.1134 204.229C39.8441 205.785 40.0164 207.387 40.6108 208.851C41.2051 210.315 42.1978 211.583 43.4763 212.511C44.7547 213.44 46.2678 213.992 47.8438 214.104C49.4199 214.216 50.9959 213.885 52.3931 213.147L112.495 181.548L172.596 213.147C174.237 214.021 176.143 214.312 177.969 213.994C182.574 213.2 185.67 208.833 184.876 204.229L173.39 137.299L222.006 89.9004C223.33 88.6036 224.203 86.9099 224.468 85.0573C225.182 80.426 221.953 76.1387 217.322 75.4506V75.4506Z" fill="#1A1E22"/>
</svg>
